<!DOCTYPE svg PUBLIC "-//W3C//DTD SVG 20010904//EN" "http://www.w3.org/TR/2001/REC-SVG-20010904/DTD/svg10.dtd">
<svg version="1.0" xmlns="http://www.w3.org/2000/svg" width="844px" height="309px" viewBox="0 0 8440 3090" preserveAspectRatio="xMidYMid meet">
<g id="layer101" fill="#5c0025" stroke="none">
<path d="M5940 3076 c-59 -17 -100 -38 -128 -68 l-22 -25 49 -46 c28 -26 53 -47 56 -47 3 0 16 10 28 21 69 67 204 65 251 -3 44 -63 0 -112 -139 -157 -155 -50 -207 -94 -221 -186 -15 -101 60 -208 167 -239 108 -33 252 -15 336 39 l25 17 -52 53 -53 53 -36 -23 c-47 -30 -100 -39 -151 -25 -52 14 -80 42 -80 80 0 47 36 75 136 106 105 31 139 47 177 83 43 39 57 74 57 141 0 79 -17 117 -74 167 -75 66 -211 91 -326 59z"/>
<path d="M7055 3076 c-189 -48 -305 -191 -305 -376 0 -172 107 -318 271 -370 92 -30 254 -25 344 10 82 32 173 122 205 205 33 84 33 215 1 297 -71 182 -303 287 -516 234z m218 -130 c97 -35 157 -117 165 -225 12 -171 -93 -284 -264 -284 -124 0 -220 64 -255 170 -15 48 -7 169 16 213 32 65 86 110 155 131 40 12 142 9 183 -5z"/>
<path d="M2102 2698 l3 -373 260 0 260 0 3 63 3 62 -191 0 -190 0 0 85 0 85 178 2 177 3 3 63 3 62 -181 0 -180 0 0 95 0 95 198 2 197 3 3 63 3 62 -276 0 -275 0 2 -372z"/>
<path d="M2710 3064 c0 -3 61 -90 136 -191 74 -102 133 -192 130 -199 -3 -8 -59 -86 -126 -173 -66 -88 -120 -165 -120 -171 0 -6 33 -10 85 -10 l85 0 45 63 c25 34 67 95 93 134 26 40 49 73 52 73 3 -1 46 -60 95 -133 l90 -132 79 -3 c44 -2 82 1 87 5 4 4 -49 84 -117 176 -68 92 -124 172 -124 178 0 9 115 168 258 357 l24 32 -94 0 -95 0 -99 -150 c-54 -82 -102 -150 -106 -150 -4 0 -53 68 -108 150 l-100 150 -85 0 c-47 0 -85 -3 -85 -6z"/>
<path d="M3780 2760 l0 -310 -125 0 -126 0 3 -62 3 -63 315 0 315 0 3 63 3 62 -120 0 -121 0 -2 308 -3 307 -72 3 -73 3 0 -311z"/>
<path d="M4270 2695 l0 -375 263 2 262 3 3 63 3 62 -191 0 -190 0 0 85 0 85 178 2 177 3 3 63 3 62 -181 0 -180 0 0 95 0 95 198 2 197 3 3 63 3 62 -276 0 -275 0 0 -375z"/>
<path d="M4952 2698 l3 -373 94 0 94 0 189 269 188 268 2 -268 3 -269 73 -3 72 -3 0 376 0 375 -92 0 -93 -1 -190 -275 -190 -275 -3 275 -2 276 -75 0 -75 0 2 -372z"/>
<path d="M6482 2698 l3 -373 70 0 70 0 3 373 2 372 -75 0 -75 0 2 -372z"/>
<path d="M7725 3057 c-3 -6 -4 -174 -3 -372 l3 -360 88 -3 c57 -2 94 1 103 9 8 6 96 129 197 273 l182 261 3 -273 2 -272 70 0 70 0 0 375 0 376 -91 -3 -92 -3 -191 -276 -191 -276 -3 279 -2 278 -70 0 c-48 0 -72 -4 -75 -13z"/>
<path d="M3704 681 c-51 -13 -54 -18 -54 -86 0 -62 14 -94 26 -58 19 58 30 75 55 88 54 28 147 11 163 -30 23 -61 -8 -116 -87 -157 -63 -31 -126 -96 -137 -139 -33 -123 89 -218 248 -193 l57 9 3 64 c2 48 0 62 -10 59 -7 -3 -14 -14 -16 -26 -9 -57 -112 -83 -166 -41 -19 15 -26 30 -26 54 0 41 18 59 107 112 75 44 108 78 124 132 22 75 -14 158 -84 194 -42 22 -151 31 -203 18z"/>
<path d="M5091 676 c-24 -8 -59 -30 -79 -48 -91 -87 -82 -202 24 -298 l49 -45 -17 -35 c-73 -145 70 -279 256 -240 64 13 68 20 58 103 -7 55 -24 78 -30 40 -12 -69 -51 -103 -117 -103 -74 0 -109 82 -69 165 20 43 136 175 214 243 l60 54 16 -37 c8 -21 14 -57 12 -83 -3 -39 -7 -47 -26 -52 -13 -3 -23 -9 -23 -15 1 -14 82 -18 115 -5 27 10 28 13 23 55 -7 47 -37 117 -65 148 -15 17 -14 20 13 42 17 14 58 39 93 57 57 30 64 32 75 17 7 -10 32 -147 56 -305 50 -340 49 -334 67 -334 9 0 62 97 136 250 67 138 123 248 125 246 2 -2 55 -111 118 -241 63 -131 119 -243 125 -249 6 -6 13 -6 19 0 6 5 28 135 51 289 22 154 43 293 46 308 6 28 23 40 77 52 15 3 25 10 22 15 -7 11 -145 14 -193 4 -27 -6 -30 -9 -26 -38 5 -29 -39 -373 -49 -382 -2 -2 -17 24 -32 58 -63 141 -177 368 -185 368 -11 0 -82 -130 -156 -289 -50 -108 -64 -130 -68 -110 -14 60 -47 350 -41 359 3 5 15 10 25 10 28 0 51 11 44 21 -8 13 -281 11 -329 -2 -22 -6 -53 -20 -69 -32 l-29 -20 -60 33 c-51 28 -73 34 -136 37 -47 2 -93 -3 -120 -11z m182 -55 c20 -5 48 -16 60 -24 23 -15 22 -16 -97 -140 -85 -87 -125 -121 -133 -115 -7 5 -20 30 -29 54 -33 87 17 199 100 223 41 12 54 12 99 2z"/>
<path d="M1502 668 c3 -7 15 -15 29 -17 13 -1 27 -8 31 -15 4 -6 8 -137 8 -290 l0 -279 -61 7 c-34 3 -77 6 -96 6 -27 0 -37 6 -51 30 -9 16 -20 30 -24 30 -11 0 -10 -44 3 -95 11 -43 12 -44 43 -37 17 4 145 7 284 7 l253 0 -3 65 c-3 62 -20 89 -26 42 -5 -31 -25 -39 -120 -47 l-82 -8 0 266 c0 146 4 277 9 291 8 18 19 25 43 28 18 2 32 8 31 13 -2 6 -59 11 -139 13 -107 2 -135 0 -132 -10z"/>
<path d="M1982 668 c3 -7 14 -14 25 -16 12 -2 24 -13 27 -25 3 -12 6 -122 6 -243 0 -237 0 -235 -53 -248 -15 -4 -25 -11 -22 -16 4 -6 84 -10 196 -10 l189 0 0 48 c0 62 -15 87 -29 49 -13 -32 -16 -34 -103 -41 l-68 -7 0 96 0 95 79 0 c44 0 83 -4 86 -10 21 -35 33 19 19 89 -7 34 -24 42 -24 11 0 -28 -30 -40 -99 -40 l-61 0 0 99 c0 92 2 101 22 115 25 18 103 21 142 6 14 -5 28 -20 32 -35 10 -39 24 -30 24 16 0 80 3 79 -206 79 -144 0 -185 -3 -182 -12z"/>
<path d="M2435 670 c-3 -5 9 -13 27 -18 27 -6 51 -32 126 -129 l92 -122 -77 -120 c-73 -112 -89 -130 -136 -145 -10 -3 -15 -10 -12 -16 8 -14 225 -13 225 0 0 6 -7 13 -15 16 -22 9 -19 19 32 104 l47 79 53 -79 c29 -44 53 -84 53 -89 0 -5 -9 -11 -20 -14 -11 -3 -20 -10 -20 -16 0 -7 31 -11 89 -11 90 0 130 15 72 26 -25 5 -46 28 -111 116 -44 60 -80 111 -80 113 0 9 152 240 173 263 25 27 77 30 100 4 9 -9 65 -132 125 -272 87 -203 113 -255 128 -255 15 0 39 49 120 240 118 279 130 300 175 309 63 12 15 27 -81 24 l-92 -3 -3 -35 c-1 -19 -14 -61 -28 -92 l-26 -58 -89 0 -90 0 -26 65 c-32 80 -32 93 -3 97 12 2 22 8 22 13 0 6 -64 11 -165 13 -178 3 -218 -1 -202 -21 7 -8 -6 -38 -44 -102 -30 -49 -58 -91 -62 -93 -8 -2 -122 167 -122 181 0 2 9 7 20 10 11 3 20 10 20 16 0 14 -186 15 -195 1z m915 -237 c-1 -5 -15 -45 -33 -91 l-33 -84 -36 91 -36 91 69 0 c38 0 69 -3 69 -7z"/>
<path d="M4242 668 c3 -7 19 -15 37 -19 18 -4 37 -11 42 -16 5 -5 65 -149 133 -319 94 -233 128 -309 141 -309 12 0 46 72 134 291 64 161 125 304 135 318 18 28 21 30 69 40 15 4 25 11 22 16 -7 11 -218 14 -228 4 -3 -3 -1 -14 4 -23 8 -12 2 -39 -24 -106 l-34 -90 -101 -3 -100 -3 -31 86 c-38 104 -38 113 -6 117 14 2 27 8 28 13 1 6 -42 11 -111 13 -88 2 -113 0 -110 -10z m405 -280 c-2 -7 -19 -54 -38 -105 -18 -51 -35 -91 -36 -89 -2 2 -21 49 -43 105 l-38 101 80 0 c60 0 79 -3 75 -12z"/>
</g>
<g id="layer102" fill="#818285" stroke="none">
<path d="M1328 2120 c-14 -4 -23 -13 -23 -25 0 -17 9 -21 60 -26 61 -7 95 -31 95 -68 0 -34 -31 -129 -165 -504 -118 -333 -140 -385 -154 -378 -37 21 -168 123 -243 191 -86 78 -219 229 -305 346 -54 72 -127 246 -139 329 -8 53 9 67 93 76 72 7 93 20 74 43 -10 12 -58 15 -299 14 -158 0 -295 -2 -304 -5 -10 -2 -18 -13 -18 -23 0 -21 12 -25 89 -34 81 -9 124 -59 197 -231 25 -60 120 -281 209 -490 90 -209 236 -553 325 -764 89 -212 168 -398 177 -415 33 -67 65 -82 96 -48 9 10 77 175 152 367 75 192 137 351 139 352 1 1 40 -5 87 -13 200 -38 416 13 620 148 43 29 77 53 76 55 -2 1 -37 -11 -79 -27 -116 -45 -240 -63 -383 -57 -135 7 -262 35 -257 58 9 40 348 903 375 952 16 32 43 67 59 79 39 27 110 48 165 48 30 0 45 5 50 16 14 37 -7 39 -382 39 -200 0 -374 -2 -387 -5z m-411 -991 c55 -52 120 -110 146 -128 l45 -33 -22 -62 c-13 -33 -43 -116 -67 -184 -32 -90 -46 -118 -51 -105 -4 10 -73 189 -154 398 -80 209 -149 387 -152 395 -3 8 30 -30 75 -85 44 -55 125 -143 180 -196z"/>
<path d="M2435 2110 c-166 -18 -302 -77 -395 -170 -97 -98 -143 -214 -143 -370 -1 -154 46 -283 139 -380 72 -76 134 -116 232 -148 69 -23 93 -26 227 -26 101 -1 188 5 268 18 l117 19 0 77 c0 127 -11 201 -28 198 -8 -2 -20 -24 -27 -51 -16 -62 -60 -107 -139 -144 -58 -27 -68 -28 -201 -28 -136 0 -141 1 -194 30 -68 38 -124 102 -152 174 -30 77 -38 258 -15 355 44 185 170 315 343 351 126 27 218 15 229 -30 3 -13 4 -96 2 -184 -3 -183 -6 -190 -82 -198 -48 -6 -68 -20 -46 -33 16 -10 419 -10 425 0 7 12 -16 27 -53 35 -18 3 -37 15 -42 25 -6 11 -10 104 -10 215 l0 196 -43 19 c-98 43 -276 65 -412 50z"/>
<path d="M2998 2089 c-18 -11 2 -29 33 -29 16 0 38 -9 48 -19 27 -27 33 -138 29 -569 l-3 -364 -24 -19 c-13 -10 -37 -19 -55 -19 -37 0 -61 -14 -52 -29 10 -15 496 -15 568 0 140 30 221 118 222 244 1 83 -36 158 -120 245 l-66 68 104 134 c139 179 261 302 313 317 55 15 127 14 150 -3 28 -20 33 -111 34 -531 0 -315 -5 -414 -23 -433 -4 -3 -25 -8 -49 -11 -29 -4 -43 -11 -45 -23 -3 -17 12 -18 206 -18 115 0 212 3 215 7 12 12 -15 33 -42 33 -15 0 -36 6 -47 14 -18 14 -19 31 -19 475 0 397 2 462 15 475 8 9 40 19 70 23 38 6 55 13 55 23 0 13 -45 15 -325 17 -186 1 -344 -2 -370 -8 -25 -6 -62 -22 -84 -37 -43 -30 -132 -140 -226 -282 -35 -52 -68 -98 -74 -102 -6 -4 -42 -8 -80 -8 l-69 0 6 175 c3 96 11 183 16 194 8 14 26 22 59 26 69 9 78 13 63 28 -13 13 -413 18 -433 6z m498 -529 c82 -51 112 -224 60 -337 -31 -66 -83 -102 -159 -110 -30 -3 -67 -3 -81 1 l-26 6 0 221 c0 254 -8 237 109 238 47 1 72 -4 97 -19z"/>
<path d="M4638 2089 c-19 -12 1 -26 43 -32 50 -7 58 -14 70 -63 12 -54 12 -1050 -1 -1074 -11 -21 -60 -40 -101 -40 -19 0 -29 -5 -29 -15 0 -8 3 -16 8 -16 31 -5 476 -3 484 2 20 13 -2 26 -54 32 -89 11 -83 -29 -83 540 0 461 1 505 17 529 24 36 72 48 193 48 153 -1 195 -28 219 -142 7 -31 23 -37 33 -11 10 26 -14 202 -32 229 l-16 25 -370 -3 c-204 -2 -375 -6 -381 -9z"/>
<path d="M5528 2089 c-18 -11 1 -29 31 -29 53 0 65 -20 73 -117 9 -127 9 -760 -1 -811 -10 -53 -12 -54 -64 -61 -29 -4 -43 -11 -45 -23 -3 -17 12 -18 206 -18 115 0 212 3 215 7 12 12 -15 33 -42 33 -15 0 -36 6 -47 14 -18 14 -19 31 -19 475 0 521 -6 487 83 498 51 6 71 17 57 31 -9 9 -432 10 -447 1z"/>
<path d="M6084 2091 c-12 -12 -1 -31 19 -31 48 0 67 -12 77 -49 6 -22 10 -208 10 -468 0 -420 -1 -434 -20 -453 -13 -13 -33 -20 -59 -20 -37 0 -72 -22 -53 -34 5 -3 166 -6 358 -6 284 -1 349 1 349 12 0 7 -4 55 -8 106 -7 79 -11 93 -25 90 -11 -2 -19 -17 -23 -41 -3 -21 -11 -43 -18 -50 -13 -13 -121 -25 -228 -26 l-73 -1 0 180 0 180 144 0 c115 0 146 -3 156 -15 7 -8 19 -15 26 -15 11 0 13 20 8 108 -7 123 -25 162 -43 96 -21 -77 -24 -79 -166 -82 l-126 -4 3 226 c3 257 2 253 86 263 51 6 71 17 57 31 -7 8 -443 10 -451 3z"/>
<path d="M6858 2089 c-18 -11 2 -29 33 -29 16 0 38 -9 48 -19 26 -26 34 -190 29 -609 l-3 -324 -24 -19 c-14 -11 -39 -19 -62 -19 -38 0 -59 -14 -43 -30 5 -5 162 -10 349 -10 l340 -2 -4 64 c-1 34 -6 81 -10 103 -8 53 -33 54 -42 2 -3 -21 -11 -43 -17 -49 -16 -16 -94 -27 -199 -27 l-93 -1 0 180 0 180 139 0 c126 0 141 -2 166 -21 22 -18 29 -20 36 -8 5 8 7 23 5 34 -3 11 -8 59 -12 108 -4 48 -11 90 -17 94 -13 8 -27 -16 -27 -48 0 -51 -29 -63 -166 -67 l-124 -4 0 183 c0 128 4 192 13 209 19 37 76 52 183 48 122 -5 150 -23 168 -110 4 -17 13 -28 23 -28 14 0 15 11 10 85 -3 47 -12 98 -19 113 l-13 27 -329 0 c-180 0 -333 -3 -338 -6z"/>
</g>


</svg>